# Tiled2Unity generated file. Do not modify by hand.
# Wavefront file for 'Dungeon-3_mesh_0002.obj'

# Vertices (Count = 504)
v -7 -1 0
v -8 -1 0
v -8 0 0
v -7 0 0
v -6 -2 0
v -7 -2 0
v -7 -1 0
v -6 -1 0
v -7 -2 0
v -8 -2 0
v -8 -1 0
v -7 -1 0
v -8 -2 0
v -9 -2 0
v -9 -1 0
v -8 -1 0
v -9 -2 0
v -10 -2 0
v -10 -1 0
v -9 -1 0
v -10 -2 0
v -11 -2 0
v -11 -1 0
v -10 -1 0
v -11 -2 0
v -12 -2 0
v -12 -1 0
v -11 -1 0
v -13 -2 0
v -14 -2 0
v -14 -1 0
v -13 -1 0
v -14 -2 0
v -15 -2 0
v -15 -1 0
v -14 -1 0
v -15 -2 0
v -16 -2 0
v -16 -1 0
v -15 -1 0
v -16 -2 0
v -17 -2 0
v -17 -1 0
v -16 -1 0
v -17 -2 0
v -18 -2 0
v -18 -1 0
v -17 -1 0
v -18 -2 0
v -19 -2 0
v -19 -1 0
v -18 -1 0
v -6 -3 0
v -7 -3 0
v -7 -2 0
v -6 -2 0
v -7 -3 0
v -8 -3 0
v -8 -2 0
v -7 -2 0
v -8 -3 0
v -9 -3 0
v -9 -2 0
v -8 -2 0
v -9 -3 0
v -10 -3 0
v -10 -2 0
v -9 -2 0
v -10 -3 0
v -11 -3 0
v -11 -2 0
v -10 -2 0
v -11 -3 0
v -12 -3 0
v -12 -2 0
v -11 -2 0
v -12 -3 0
v -13 -3 0
v -13 -2 0
v -12 -2 0
v -13 -3 0
v -14 -3 0
v -14 -2 0
v -13 -2 0
v -14 -3 0
v -15 -3 0
v -15 -2 0
v -14 -2 0
v -15 -3 0
v -16 -3 0
v -16 -2 0
v -15 -2 0
v -16 -3 0
v -17 -3 0
v -17 -2 0
v -16 -2 0
v -17 -3 0
v -18 -3 0
v -18 -2 0
v -17 -2 0
v -18 -3 0
v -19 -3 0
v -19 -2 0
v -18 -2 0
v -6 -4 0
v -7 -4 0
v -7 -3 0
v -6 -3 0
v -7 -4 0
v -8 -4 0
v -8 -3 0
v -7 -3 0
v -8 -4 0
v -9 -4 0
v -9 -3 0
v -8 -3 0
v -9 -4 0
v -10 -4 0
v -10 -3 0
v -9 -3 0
v -10 -4 0
v -11 -4 0
v -11 -3 0
v -10 -3 0
v -11 -4 0
v -12 -4 0
v -12 -3 0
v -11 -3 0
v -12 -4 0
v -13 -4 0
v -13 -3 0
v -12 -3 0
v -13 -4 0
v -14 -4 0
v -14 -3 0
v -13 -3 0
v -14 -4 0
v -15 -4 0
v -15 -3 0
v -14 -3 0
v -15 -4 0
v -16 -4 0
v -16 -3 0
v -15 -3 0
v -16 -4 0
v -17 -4 0
v -17 -3 0
v -16 -3 0
v -17 -4 0
v -18 -4 0
v -18 -3 0
v -17 -3 0
v -18 -4 0
v -19 -4 0
v -19 -3 0
v -18 -3 0
v -6 -5 0
v -7 -5 0
v -7 -4 0
v -6 -4 0
v -7 -5 0
v -8 -5 0
v -8 -4 0
v -7 -4 0
v -8 -5 0
v -9 -5 0
v -9 -4 0
v -8 -4 0
v -9 -5 0
v -10 -5 0
v -10 -4 0
v -9 -4 0
v -10 -5 0
v -11 -5 0
v -11 -4 0
v -10 -4 0
v -11 -5 0
v -12 -5 0
v -12 -4 0
v -11 -4 0
v -12 -5 0
v -13 -5 0
v -13 -4 0
v -12 -4 0
v -13 -5 0
v -14 -5 0
v -14 -4 0
v -13 -4 0
v -14 -5 0
v -15 -5 0
v -15 -4 0
v -14 -4 0
v -15 -5 0
v -16 -5 0
v -16 -4 0
v -15 -4 0
v -16 -5 0
v -17 -5 0
v -17 -4 0
v -16 -4 0
v -17 -5 0
v -18 -5 0
v -18 -4 0
v -17 -4 0
v -18 -5 0
v -19 -5 0
v -19 -4 0
v -18 -4 0
v -7 -6 0
v -8 -6 0
v -8 -5 0
v -7 -5 0
v -8 -6 0
v -9 -6 0
v -9 -5 0
v -8 -5 0
v -9 -6 0
v -10 -6 0
v -10 -5 0
v -9 -5 0
v -10 -6 0
v -11 -6 0
v -11 -5 0
v -10 -5 0
v -11 -6 0
v -12 -6 0
v -12 -5 0
v -11 -5 0
v -12 -6 0
v -13 -6 0
v -13 -5 0
v -12 -5 0
v -13 -6 0
v -14 -6 0
v -14 -5 0
v -13 -5 0
v -14 -6 0
v -15 -6 0
v -15 -5 0
v -14 -5 0
v -15 -6 0
v -16 -6 0
v -16 -5 0
v -15 -5 0
v -16 -6 0
v -17 -6 0
v -17 -5 0
v -16 -5 0
v -17 -6 0
v -18 -6 0
v -18 -5 0
v -17 -5 0
v -7 -7 0
v -8 -7 0
v -8 -6 0
v -7 -6 0
v -8 -7 0
v -9 -7 0
v -9 -6 0
v -8 -6 0
v -9 -7 0
v -10 -7 0
v -10 -6 0
v -9 -6 0
v -10 -7 0
v -11 -7 0
v -11 -6 0
v -10 -6 0
v -11 -7 0
v -12 -7 0
v -12 -6 0
v -11 -6 0
v -12 -7 0
v -13 -7 0
v -13 -6 0
v -12 -6 0
v -13 -7 0
v -14 -7 0
v -14 -6 0
v -13 -6 0
v -14 -7 0
v -15 -7 0
v -15 -6 0
v -14 -6 0
v -15 -7 0
v -16 -7 0
v -16 -6 0
v -15 -6 0
v -16 -7 0
v -17 -7 0
v -17 -6 0
v -16 -6 0
v -17 -7 0
v -18 -7 0
v -18 -6 0
v -17 -6 0
v -6 -8 0
v -7 -8 0
v -7 -7 0
v -6 -7 0
v -7 -8 0
v -8 -8 0
v -8 -7 0
v -7 -7 0
v -8 -8 0
v -9 -8 0
v -9 -7 0
v -8 -7 0
v -9 -8 0
v -10 -8 0
v -10 -7 0
v -9 -7 0
v -10 -8 0
v -11 -8 0
v -11 -7 0
v -10 -7 0
v -11 -8 0
v -12 -8 0
v -12 -7 0
v -11 -7 0
v -12 -8 0
v -13 -8 0
v -13 -7 0
v -12 -7 0
v -13 -8 0
v -14 -8 0
v -14 -7 0
v -13 -7 0
v -14 -8 0
v -15 -8 0
v -15 -7 0
v -14 -7 0
v -15 -8 0
v -16 -8 0
v -16 -7 0
v -15 -7 0
v -16 -8 0
v -17 -8 0
v -17 -7 0
v -16 -7 0
v -17 -8 0
v -18 -8 0
v -18 -7 0
v -17 -7 0
v -18 -8 0
v -19 -8 0
v -19 -7 0
v -18 -7 0
v -6 -9 0
v -7 -9 0
v -7 -8 0
v -6 -8 0
v -7 -9 0
v -8 -9 0
v -8 -8 0
v -7 -8 0
v -8 -9 0
v -9 -9 0
v -9 -8 0
v -8 -8 0
v -9 -9 0
v -10 -9 0
v -10 -8 0
v -9 -8 0
v -10 -9 0
v -11 -9 0
v -11 -8 0
v -10 -8 0
v -11 -9 0
v -12 -9 0
v -12 -8 0
v -11 -8 0
v -12 -9 0
v -13 -9 0
v -13 -8 0
v -12 -8 0
v -13 -9 0
v -14 -9 0
v -14 -8 0
v -13 -8 0
v -14 -9 0
v -15 -9 0
v -15 -8 0
v -14 -8 0
v -15 -9 0
v -16 -9 0
v -16 -8 0
v -15 -8 0
v -16 -9 0
v -17 -9 0
v -17 -8 0
v -16 -8 0
v -17 -9 0
v -18 -9 0
v -18 -8 0
v -17 -8 0
v -18 -9 0
v -19 -9 0
v -19 -8 0
v -18 -8 0
v -6 -10 0
v -7 -10 0
v -7 -9 0
v -6 -9 0
v -7 -10 0
v -8 -10 0
v -8 -9 0
v -7 -9 0
v -8 -10 0
v -9 -10 0
v -9 -9 0
v -8 -9 0
v -9 -10 0
v -10 -10 0
v -10 -9 0
v -9 -9 0
v -10 -10 0
v -11 -10 0
v -11 -9 0
v -10 -9 0
v -11 -10 0
v -12 -10 0
v -12 -9 0
v -11 -9 0
v -12 -10 0
v -13 -10 0
v -13 -9 0
v -12 -9 0
v -13 -10 0
v -14 -10 0
v -14 -9 0
v -13 -9 0
v -14 -10 0
v -15 -10 0
v -15 -9 0
v -14 -9 0
v -15 -10 0
v -16 -10 0
v -16 -9 0
v -15 -9 0
v -16 -10 0
v -17 -10 0
v -17 -9 0
v -16 -9 0
v -17 -10 0
v -18 -10 0
v -18 -9 0
v -17 -9 0
v -18 -10 0
v -19 -10 0
v -19 -9 0
v -18 -9 0
v -6 -11 0
v -7 -11 0
v -7 -10 0
v -6 -10 0
v -7 -11 0
v -8 -11 0
v -8 -10 0
v -7 -10 0
v -8 -11 0
v -9 -11 0
v -9 -10 0
v -8 -10 0
v -9 -11 0
v -10 -11 0
v -10 -10 0
v -9 -10 0
v -10 -11 0
v -11 -11 0
v -11 -10 0
v -10 -10 0
v -11 -11 0
v -12 -11 0
v -12 -10 0
v -11 -10 0
v -13 -11 0
v -14 -11 0
v -14 -10 0
v -13 -10 0
v -14 -11 0
v -15 -11 0
v -15 -10 0
v -14 -10 0
v -15 -11 0
v -16 -11 0
v -16 -10 0
v -15 -10 0
v -16 -11 0
v -17 -11 0
v -17 -10 0
v -16 -10 0
v -17 -11 0
v -18 -11 0
v -18 -10 0
v -17 -10 0
v -18 -11 0
v -19 -11 0
v -19 -10 0
v -18 -10 0
v -17 -12 0
v -18 -12 0
v -18 -11 0
v -17 -11 0

# Texture cooridinates (Count = 33)
vt 0.6875 0.5333333
vt 0.75 0.5333333
vt 0.75 0.6
vt 0.6875 0.6
vt 0.625 0.6
vt 0.6875 0.6666666
vt 0.625 0.6666666
vt 0.75 0.6666666
vt 0.8125 0.6
vt 0.875 0.6
vt 0.875 0.6666666
vt 0.8125 0.6666666
vt 0.625 0.4666666
vt 0.6875 0.4666666
vt 0.625 0.5333333
vt 0.0625 0.1333333
vt 0.125 0.1333333
vt 0.125 0.2
vt 0.0625 0.2
vt 0.8125 0.1333333
vt 0.875 0.1333333
vt 0.875 0.2
vt 0.8125 0.2
vt 0.8125 0.5333333
vt 0.875 0.5333333
vt 0.625 0.4
vt 0.6875 0.4
vt 0.8125 0.4
vt 0.875 0.4
vt 0.875 0.4666666
vt 0.8125 0.4666666
vt 0.75 0.4
vt 0.75 0.4666666

# Normal
vn 0 0 -1

# Mesh description
g Dungeon-3_mesh_0002

# Faces
f 1/1/1 2/2/1 3/3/1 4/4/1
f 5/5/1 6/4/1 7/6/1 8/7/1
f 9/1/1 10/2/1 11/3/1 12/4/1
f 13/4/1 14/3/1 15/8/1 16/6/1
f 17/4/1 18/3/1 19/8/1 20/6/1
f 21/4/1 22/3/1 23/8/1 24/6/1
f 25/9/1 26/10/1 27/11/1 28/12/1
f 29/5/1 30/4/1 31/6/1 32/7/1
f 33/4/1 34/3/1 35/8/1 36/6/1
f 37/4/1 38/3/1 39/8/1 40/6/1
f 41/4/1 42/3/1 43/8/1 44/6/1
f 45/4/1 46/3/1 47/8/1 48/6/1
f 49/9/1 50/10/1 51/11/1 52/12/1
f 53/13/1 54/14/1 55/1/1 56/15/1
f 57/16/1 58/17/1 59/18/1 60/19/1
f 61/20/1 62/21/1 63/22/1 64/23/1
f 65/16/1 66/17/1 67/18/1 68/19/1
f 69/20/1 70/21/1 71/22/1 72/23/1
f 73/16/1 74/17/1 75/18/1 76/19/1
f 77/20/1 78/21/1 79/22/1 80/23/1
f 81/16/1 82/17/1 83/18/1 84/19/1
f 85/20/1 86/21/1 87/22/1 88/23/1
f 89/16/1 90/17/1 91/18/1 92/19/1
f 93/20/1 94/21/1 95/22/1 96/23/1
f 97/16/1 98/17/1 99/18/1 100/19/1
f 101/24/1 102/25/1 103/10/1 104/9/1
f 105/13/1 106/14/1 107/1/1 108/15/1
f 109/20/1 110/21/1 111/22/1 112/23/1
f 113/16/1 114/17/1 115/18/1 116/19/1
f 117/20/1 118/21/1 119/22/1 120/23/1
f 121/16/1 122/17/1 123/18/1 124/19/1
f 125/20/1 126/21/1 127/22/1 128/23/1
f 129/16/1 130/17/1 131/18/1 132/19/1
f 133/20/1 134/21/1 135/22/1 136/23/1
f 137/16/1 138/17/1 139/18/1 140/19/1
f 141/20/1 142/21/1 143/22/1 144/23/1
f 145/16/1 146/17/1 147/18/1 148/19/1
f 149/20/1 150/21/1 151/22/1 152/23/1
f 153/24/1 154/25/1 155/10/1 156/9/1
f 157/26/1 158/27/1 159/14/1 160/13/1
f 161/16/1 162/17/1 163/18/1 164/19/1
f 165/20/1 166/21/1 167/22/1 168/23/1
f 169/16/1 170/17/1 171/18/1 172/19/1
f 173/1/1 174/2/1 175/3/1 176/4/1
f 177/16/1 178/17/1 179/18/1 180/19/1
f 181/20/1 182/21/1 183/22/1 184/23/1
f 185/16/1 186/17/1 187/18/1 188/19/1
f 189/1/1 190/2/1 191/3/1 192/4/1
f 193/16/1 194/17/1 195/18/1 196/19/1
f 197/20/1 198/21/1 199/22/1 200/23/1
f 201/16/1 202/17/1 203/18/1 204/19/1
f 205/28/1 206/29/1 207/30/1 208/31/1
f 209/20/1 210/21/1 211/22/1 212/23/1
f 213/16/1 214/17/1 215/18/1 216/19/1
f 217/20/1 218/21/1 219/22/1 220/23/1
f 221/16/1 222/17/1 223/18/1 224/19/1
f 225/20/1 226/21/1 227/22/1 228/23/1
f 229/16/1 230/17/1 231/18/1 232/19/1
f 233/20/1 234/21/1 235/22/1 236/23/1
f 237/16/1 238/17/1 239/18/1 240/19/1
f 241/20/1 242/21/1 243/22/1 244/23/1
f 245/16/1 246/17/1 247/18/1 248/19/1
f 249/20/1 250/21/1 251/22/1 252/23/1
f 253/16/1 254/17/1 255/18/1 256/19/1
f 257/20/1 258/21/1 259/22/1 260/23/1
f 261/16/1 262/17/1 263/18/1 264/19/1
f 265/20/1 266/21/1 267/22/1 268/23/1
f 269/16/1 270/17/1 271/18/1 272/19/1
f 273/20/1 274/21/1 275/22/1 276/23/1
f 277/16/1 278/17/1 279/18/1 280/19/1
f 281/20/1 282/21/1 283/22/1 284/23/1
f 285/16/1 286/17/1 287/18/1 288/19/1
f 289/20/1 290/21/1 291/22/1 292/23/1
f 293/16/1 294/17/1 295/18/1 296/19/1
f 297/5/1 298/4/1 299/6/1 300/7/1
f 301/20/1 302/21/1 303/22/1 304/23/1
f 305/16/1 306/17/1 307/18/1 308/19/1
f 309/20/1 310/21/1 311/22/1 312/23/1
f 313/1/1 314/2/1 315/3/1 316/4/1
f 317/20/1 318/21/1 319/22/1 320/23/1
f 321/16/1 322/17/1 323/18/1 324/19/1
f 325/20/1 326/21/1 327/22/1 328/23/1
f 329/1/1 330/2/1 331/3/1 332/4/1
f 333/20/1 334/21/1 335/22/1 336/23/1
f 337/16/1 338/17/1 339/18/1 340/19/1
f 341/20/1 342/21/1 343/22/1 344/23/1
f 345/9/1 346/10/1 347/11/1 348/12/1
f 349/13/1 350/14/1 351/1/1 352/15/1
f 353/16/1 354/17/1 355/18/1 356/19/1
f 357/20/1 358/21/1 359/22/1 360/23/1
f 361/16/1 362/17/1 363/18/1 364/19/1
f 365/20/1 366/21/1 367/22/1 368/23/1
f 369/16/1 370/17/1 371/18/1 372/19/1
f 373/20/1 374/21/1 375/22/1 376/23/1
f 377/16/1 378/17/1 379/18/1 380/19/1
f 381/20/1 382/21/1 383/22/1 384/23/1
f 385/16/1 386/17/1 387/18/1 388/19/1
f 389/20/1 390/21/1 391/22/1 392/23/1
f 393/16/1 394/17/1 395/18/1 396/19/1
f 397/24/1 398/25/1 399/10/1 400/9/1
f 401/13/1 402/14/1 403/1/1 404/15/1
f 405/20/1 406/21/1 407/22/1 408/23/1
f 409/16/1 410/17/1 411/18/1 412/19/1
f 413/20/1 414/21/1 415/22/1 416/23/1
f 417/16/1 418/17/1 419/18/1 420/19/1
f 421/20/1 422/21/1 423/22/1 424/23/1
f 425/16/1 426/17/1 427/18/1 428/19/1
f 429/20/1 430/21/1 431/22/1 432/23/1
f 433/16/1 434/17/1 435/18/1 436/19/1
f 437/20/1 438/21/1 439/22/1 440/23/1
f 441/16/1 442/17/1 443/18/1 444/19/1
f 445/20/1 446/21/1 447/22/1 448/23/1
f 449/24/1 450/25/1 451/10/1 452/9/1
f 453/26/1 454/27/1 455/14/1 456/13/1
f 457/32/1 458/28/1 459/31/1 460/33/1
f 461/32/1 462/28/1 463/31/1 464/33/1
f 465/32/1 466/28/1 467/31/1 468/33/1
f 469/32/1 470/28/1 471/31/1 472/33/1
f 473/28/1 474/29/1 475/30/1 476/31/1
f 477/26/1 478/27/1 479/14/1 480/13/1
f 481/32/1 482/28/1 483/31/1 484/33/1
f 485/32/1 486/28/1 487/31/1 488/33/1
f 489/32/1 490/28/1 491/31/1 492/33/1
f 493/1/1 494/2/1 495/3/1 496/4/1
f 497/28/1 498/29/1 499/30/1 500/31/1
f 501/1/1 502/2/1 503/3/1 504/4/1

