# Tiled2Unity generated file. Do not modify by hand.
# Wavefront file for 'Dungeon-3_mesh_0004.obj'

# Vertices (Count = 24)
v -6 -1 0
v -7 -1 0
v -7 0 0
v -6 0 0
v -7 -1 0
v -8 -1 0
v -8 0 0
v -7 0 0
v -8 -1 0
v -9 -1 0
v -9 0 0
v -8 0 0
v -16 -12 0
v -17 -12 0
v -17 -11 0
v -16 -11 0
v -17 -12 0
v -18 -12 0
v -18 -11 0
v -17 -11 0
v -18 -12 0
v -19 -12 0
v -19 -11 0
v -18 -11 0

# Texture cooridinates (Count = 12)
vt 0 0.7647059
vt 0.1666667 0.7647059
vt 0.1666667 0.8235294
vt 0 0.8235294
vt 0.3333333 0.7647059
vt 0.3333333 0.8235294
vt 0.5 0.7647059
vt 0.5 0.8235294
vt 0 0.7058823
vt 0.1666667 0.7058823
vt 0.3333333 0.7058823
vt 0.5 0.7058823

# Normal
vn 0 0 -1

# Mesh description
g Dungeon-3_mesh_0004

# Faces
f 1/1/1 2/2/1 3/3/1 4/4/1
f 5/2/1 6/5/1 7/6/1 8/3/1
f 9/5/1 10/7/1 11/8/1 12/6/1
f 13/9/1 14/10/1 15/2/1 16/1/1
f 17/10/1 18/11/1 19/5/1 20/2/1
f 21/11/1 22/12/1 23/7/1 24/5/1

