# Tiled2Unity generated file. Do not modify by hand.
# Wavefront file for 'First-Level_mesh_0003.obj'

# Vertices (Count = 144)
v -14 -1 0
v -15 -1 0
v -15 0 0
v -14 0 0
v -13 -1 0
v -14 -1 0
v -14 0 0
v -13 0 0
v -12 -1 0
v -13 -1 0
v -13 0 0
v -12 0 0
v -11 -1 0
v -12 -1 0
v -12 0 0
v -11 0 0
v -10 -1 0
v -11 -1 0
v -11 0 0
v -10 0 0
v -9 -1 0
v -10 -1 0
v -10 0 0
v -9 0 0
v -8 -1 0
v -9 -1 0
v -9 0 0
v -8 0 0
v -7 -1 0
v -8 -1 0
v -8 0 0
v -7 0 0
v -6 -1 0
v -7 -1 0
v -7 0 0
v -6 0 0
v -5 -1 0
v -6 -1 0
v -6 0 0
v -5 0 0
v -4 -1 0
v -5 -1 0
v -5 0 0
v -4 0 0
v -14 -2 0
v -15 -2 0
v -15 -1 0
v -14 -1 0
v -4 -2 0
v -5 -2 0
v -5 -1 0
v -4 -1 0
v -14 -3 0
v -15 -3 0
v -15 -2 0
v -14 -2 0
v -4 -3 0
v -5 -3 0
v -5 -2 0
v -4 -2 0
v -14 -4 0
v -15 -4 0
v -15 -3 0
v -14 -3 0
v -4 -4 0
v -5 -4 0
v -5 -3 0
v -4 -3 0
v -14 -5 0
v -15 -5 0
v -15 -4 0
v -14 -4 0
v -4 -5 0
v -5 -5 0
v -5 -4 0
v -4 -4 0
v -14 -6 0
v -15 -6 0
v -15 -5 0
v -14 -5 0
v -4 -6 0
v -5 -6 0
v -5 -5 0
v -4 -5 0
v -14 -7 0
v -15 -7 0
v -15 -6 0
v -14 -6 0
v -4 -7 0
v -5 -7 0
v -5 -6 0
v -4 -6 0
v -14 -8 0
v -15 -8 0
v -15 -7 0
v -14 -7 0
v -4 -8 0
v -5 -8 0
v -5 -7 0
v -4 -7 0
v -14 -9 0
v -15 -9 0
v -15 -8 0
v -14 -8 0
v -13 -9 0
v -14 -9 0
v -14 -8 0
v -13 -8 0
v -12 -9 0
v -13 -9 0
v -13 -8 0
v -12 -8 0
v -11 -9 0
v -12 -9 0
v -12 -8 0
v -11 -8 0
v -10 -9 0
v -11 -9 0
v -11 -8 0
v -10 -8 0
v -9 -9 0
v -10 -9 0
v -10 -8 0
v -9 -8 0
v -8 -9 0
v -9 -9 0
v -9 -8 0
v -8 -8 0
v -7 -9 0
v -8 -9 0
v -8 -8 0
v -7 -8 0
v -6 -9 0
v -7 -9 0
v -7 -8 0
v -6 -8 0
v -5 -9 0
v -6 -9 0
v -6 -8 0
v -5 -8 0
v -4 -9 0
v -5 -9 0
v -5 -8 0
v -4 -8 0

# Texture cooridinates (Count = 20)
vt 0.3333333 0.9411765
vt 0.5 0.9411765
vt 0.5 1
vt 0.3333333 1
vt 0.1666667 0.9411765
vt 0.1666667 1
vt 0.5 0.6470588
vt 0.6666667 0.6470588
vt 0.6666667 0.7058823
vt 0.5 0.7058823
vt 0 0.9411765
vt 0 1
vt 0.3333333 0.8823529
vt 0.5 0.8823529
vt 0 0.8823529
vt 0.1666667 0.8823529
vt 0.3333333 0.8235294
vt 0.5 0.8235294
vt 0.1666667 0.8235294
vt 0 0.8235294

# Normal
vn 0 0 -1

# Mesh description
g First-Level_mesh_0003

# Faces
f 1/1/1 2/2/1 3/3/1 4/4/1
f 5/5/1 6/1/1 7/4/1 8/6/1
f 9/5/1 10/1/1 11/4/1 12/6/1
f 13/5/1 14/1/1 15/4/1 16/6/1
f 17/5/1 18/1/1 19/4/1 20/6/1
f 21/7/1 22/8/1 23/9/1 24/10/1
f 25/5/1 26/1/1 27/4/1 28/6/1
f 29/5/1 30/1/1 31/4/1 32/6/1
f 33/5/1 34/1/1 35/4/1 36/6/1
f 37/5/1 38/1/1 39/4/1 40/6/1
f 41/11/1 42/5/1 43/6/1 44/12/1
f 45/13/1 46/14/1 47/2/1 48/1/1
f 49/15/1 50/16/1 51/5/1 52/11/1
f 53/13/1 54/14/1 55/2/1 56/1/1
f 57/15/1 58/16/1 59/5/1 60/11/1
f 61/13/1 62/14/1 63/2/1 64/1/1
f 65/15/1 66/16/1 67/5/1 68/11/1
f 69/13/1 70/14/1 71/2/1 72/1/1
f 73/15/1 74/16/1 75/5/1 76/11/1
f 77/13/1 78/14/1 79/2/1 80/1/1
f 81/15/1 82/16/1 83/5/1 84/11/1
f 85/13/1 86/14/1 87/2/1 88/1/1
f 89/15/1 90/16/1 91/5/1 92/11/1
f 93/13/1 94/14/1 95/2/1 96/1/1
f 97/15/1 98/16/1 99/5/1 100/11/1
f 101/17/1 102/18/1 103/14/1 104/13/1
f 105/19/1 106/17/1 107/13/1 108/16/1
f 109/19/1 110/17/1 111/13/1 112/16/1
f 113/19/1 114/17/1 115/13/1 116/16/1
f 117/19/1 118/17/1 119/13/1 120/16/1
f 121/19/1 122/17/1 123/13/1 124/16/1
f 125/19/1 126/17/1 127/13/1 128/16/1
f 129/19/1 130/17/1 131/13/1 132/16/1
f 133/19/1 134/17/1 135/13/1 136/16/1
f 137/19/1 138/17/1 139/13/1 140/16/1
f 141/20/1 142/19/1 143/16/1 144/15/1

