# Tiled2Unity generated file. Do not modify by hand.
# Wavefront file for 'Dungeon-2_mesh_0002.obj'

# Vertices (Count = 816)
v -8 -1 0
v -9 -1 0
v -9 0 0
v -8 0 0
v -9 -1 0
v -10 -1 0
v -10 0 0
v -9 0 0
v -10 -1 0
v -11 -1 0
v -11 0 0
v -10 0 0
v -11 -1 0
v -12 -1 0
v -12 0 0
v -11 0 0
v -12 -1 0
v -13 -1 0
v -13 0 0
v -12 0 0
v -13 -1 0
v -14 -1 0
v -14 0 0
v -13 0 0
v -14 -1 0
v -15 -1 0
v -15 0 0
v -14 0 0
v -15 -1 0
v -16 -1 0
v -16 0 0
v -15 0 0
v -16 -1 0
v -17 -1 0
v -17 0 0
v -16 0 0
v -17 -1 0
v -18 -1 0
v -18 0 0
v -17 0 0
v -18 -1 0
v -19 -1 0
v -19 0 0
v -18 0 0
v -19 -1 0
v -20 -1 0
v -20 0 0
v -19 0 0
v -20 -1 0
v -21 -1 0
v -21 0 0
v -20 0 0
v -21 -1 0
v -22 -1 0
v -22 0 0
v -21 0 0
v -22 -1 0
v -23 -1 0
v -23 0 0
v -22 0 0
v -23 -1 0
v -24 -1 0
v -24 0 0
v -23 0 0
v -24 -1 0
v -25 -1 0
v -25 0 0
v -24 0 0
v -25 -1 0
v -26 -1 0
v -26 0 0
v -25 0 0
v -26 -1 0
v -27 -1 0
v -27 0 0
v -26 0 0
v -28 -1 0
v -29 -1 0
v -29 0 0
v -28 0 0
v -29 -1 0
v -30 -1 0
v -30 0 0
v -29 0 0
v -8 -2 0
v -9 -2 0
v -9 -1 0
v -8 -1 0
v -22 -2 0
v -23 -2 0
v -23 -1 0
v -22 -1 0
v -23 -2 0
v -24 -2 0
v -24 -1 0
v -23 -1 0
v -24 -2 0
v -25 -2 0
v -25 -1 0
v -24 -1 0
v -29 -2 0
v -30 -2 0
v -30 -1 0
v -29 -1 0
v -8 -3 0
v -9 -3 0
v -9 -2 0
v -8 -2 0
v -10 -3 0
v -11 -3 0
v -11 -2 0
v -10 -2 0
v -11 -3 0
v -12 -3 0
v -12 -2 0
v -11 -2 0
v -13 -3 0
v -14 -3 0
v -14 -2 0
v -13 -2 0
v -14 -3 0
v -15 -3 0
v -15 -2 0
v -14 -2 0
v -15 -3 0
v -16 -3 0
v -16 -2 0
v -15 -2 0
v -17 -3 0
v -18 -3 0
v -18 -2 0
v -17 -2 0
v -20 -3 0
v -21 -3 0
v -21 -2 0
v -20 -2 0
v -22 -3 0
v -23 -3 0
v -23 -2 0
v -22 -2 0
v -29 -3 0
v -30 -3 0
v -30 -2 0
v -29 -2 0
v -8 -4 0
v -9 -4 0
v -9 -3 0
v -8 -3 0
v -10 -4 0
v -11 -4 0
v -11 -3 0
v -10 -3 0
v -14 -4 0
v -15 -4 0
v -15 -3 0
v -14 -3 0
v -15 -4 0
v -16 -4 0
v -16 -3 0
v -15 -3 0
v -17 -4 0
v -18 -4 0
v -18 -3 0
v -17 -3 0
v -18 -4 0
v -19 -4 0
v -19 -3 0
v -18 -3 0
v -19 -4 0
v -20 -4 0
v -20 -3 0
v -19 -3 0
v -20 -4 0
v -21 -4 0
v -21 -3 0
v -20 -3 0
v -22 -4 0
v -23 -4 0
v -23 -3 0
v -22 -3 0
v -24 -4 0
v -25 -4 0
v -25 -3 0
v -24 -3 0
v -26 -4 0
v -27 -4 0
v -27 -3 0
v -26 -3 0
v -29 -4 0
v -30 -4 0
v -30 -3 0
v -29 -3 0
v -8 -5 0
v -9 -5 0
v -9 -4 0
v -8 -4 0
v -10 -5 0
v -11 -5 0
v -11 -4 0
v -10 -4 0
v -14 -5 0
v -15 -5 0
v -15 -4 0
v -14 -4 0
v -15 -5 0
v -16 -5 0
v -16 -4 0
v -15 -4 0
v -18 -5 0
v -19 -5 0
v -19 -4 0
v -18 -4 0
v -19 -5 0
v -20 -5 0
v -20 -4 0
v -19 -4 0
v -22 -5 0
v -23 -5 0
v -23 -4 0
v -22 -4 0
v -29 -5 0
v -30 -5 0
v -30 -4 0
v -29 -4 0
v -8 -6 0
v -9 -6 0
v -9 -5 0
v -8 -5 0
v -10 -6 0
v -11 -6 0
v -11 -5 0
v -10 -5 0
v -11 -6 0
v -12 -6 0
v -12 -5 0
v -11 -5 0
v -12 -6 0
v -13 -6 0
v -13 -5 0
v -12 -5 0
v -13 -6 0
v -14 -6 0
v -14 -5 0
v -13 -5 0
v -14 -6 0
v -15 -6 0
v -15 -5 0
v -14 -5 0
v -15 -6 0
v -16 -6 0
v -16 -5 0
v -15 -5 0
v -17 -6 0
v -18 -6 0
v -18 -5 0
v -17 -5 0
v -20 -6 0
v -21 -6 0
v -21 -5 0
v -20 -5 0
v -22 -6 0
v -23 -6 0
v -23 -5 0
v -22 -5 0
v -24 -6 0
v -25 -6 0
v -25 -5 0
v -24 -5 0
v -26 -6 0
v -27 -6 0
v -27 -5 0
v -26 -5 0
v -28 -6 0
v -29 -6 0
v -29 -5 0
v -28 -5 0
v -29 -6 0
v -30 -6 0
v -30 -5 0
v -29 -5 0
v -8 -7 0
v -9 -7 0
v -9 -6 0
v -8 -6 0
v -15 -7 0
v -16 -7 0
v -16 -6 0
v -15 -6 0
v -28 -7 0
v -29 -7 0
v -29 -6 0
v -28 -6 0
v -29 -7 0
v -30 -7 0
v -30 -6 0
v -29 -6 0
v -8 -8 0
v -9 -8 0
v -9 -7 0
v -8 -7 0
v -10 -8 0
v -11 -8 0
v -11 -7 0
v -10 -7 0
v -11 -8 0
v -12 -8 0
v -12 -7 0
v -11 -7 0
v -12 -8 0
v -13 -8 0
v -13 -7 0
v -12 -7 0
v -13 -8 0
v -14 -8 0
v -14 -7 0
v -13 -7 0
v -14 -8 0
v -15 -8 0
v -15 -7 0
v -14 -7 0
v -15 -8 0
v -16 -8 0
v -16 -7 0
v -15 -7 0
v -16 -8 0
v -17 -8 0
v -17 -7 0
v -16 -7 0
v -17 -8 0
v -18 -8 0
v -18 -7 0
v -17 -7 0
v -18 -8 0
v -19 -8 0
v -19 -7 0
v -18 -7 0
v -19 -8 0
v -20 -8 0
v -20 -7 0
v -19 -7 0
v -20 -8 0
v -21 -8 0
v -21 -7 0
v -20 -7 0
v -21 -8 0
v -22 -8 0
v -22 -7 0
v -21 -7 0
v -22 -8 0
v -23 -8 0
v -23 -7 0
v -22 -7 0
v -24 -8 0
v -25 -8 0
v -25 -7 0
v -24 -7 0
v -25 -8 0
v -26 -8 0
v -26 -7 0
v -25 -7 0
v -26 -8 0
v -27 -8 0
v -27 -7 0
v -26 -7 0
v -27 -8 0
v -28 -8 0
v -28 -7 0
v -27 -7 0
v -28 -8 0
v -29 -8 0
v -29 -7 0
v -28 -7 0
v -29 -8 0
v -30 -8 0
v -30 -7 0
v -29 -7 0
v -8 -9 0
v -9 -9 0
v -9 -8 0
v -8 -8 0
v -15 -9 0
v -16 -9 0
v -16 -8 0
v -15 -8 0
v -22 -9 0
v -23 -9 0
v -23 -8 0
v -22 -8 0
v -29 -9 0
v -30 -9 0
v -30 -8 0
v -29 -8 0
v -8 -10 0
v -9 -10 0
v -9 -9 0
v -8 -9 0
v -11 -10 0
v -12 -10 0
v -12 -9 0
v -11 -9 0
v -12 -10 0
v -13 -10 0
v -13 -9 0
v -12 -9 0
v -15 -10 0
v -16 -10 0
v -16 -9 0
v -15 -9 0
v -22 -10 0
v -23 -10 0
v -23 -9 0
v -22 -9 0
v -29 -10 0
v -30 -10 0
v -30 -9 0
v -29 -9 0
v -8 -11 0
v -9 -11 0
v -9 -10 0
v -8 -10 0
v -9 -11 0
v -10 -11 0
v -10 -10 0
v -9 -10 0
v -10 -11 0
v -11 -11 0
v -11 -10 0
v -10 -10 0
v -11 -11 0
v -12 -11 0
v -12 -10 0
v -11 -10 0
v -12 -11 0
v -13 -11 0
v -13 -10 0
v -12 -10 0
v -13 -11 0
v -14 -11 0
v -14 -10 0
v -13 -10 0
v -15 -11 0
v -16 -11 0
v -16 -10 0
v -15 -10 0
v -16 -11 0
v -17 -11 0
v -17 -10 0
v -16 -10 0
v -17 -11 0
v -18 -11 0
v -18 -10 0
v -17 -10 0
v -18 -11 0
v -19 -11 0
v -19 -10 0
v -18 -10 0
v -19 -11 0
v -20 -11 0
v -20 -10 0
v -19 -10 0
v -20 -11 0
v -21 -11 0
v -21 -10 0
v -20 -10 0
v -21 -11 0
v -22 -11 0
v -22 -10 0
v -21 -10 0
v -22 -11 0
v -23 -11 0
v -23 -10 0
v -22 -10 0
v -23 -11 0
v -24 -11 0
v -24 -10 0
v -23 -10 0
v -24 -11 0
v -25 -11 0
v -25 -10 0
v -24 -10 0
v -25 -11 0
v -26 -11 0
v -26 -10 0
v -25 -10 0
v -26 -11 0
v -27 -11 0
v -27 -10 0
v -26 -10 0
v -27 -11 0
v -28 -11 0
v -28 -10 0
v -27 -10 0
v -29 -11 0
v -30 -11 0
v -30 -10 0
v -29 -10 0
v -8 -12 0
v -9 -12 0
v -9 -11 0
v -8 -11 0
v -9 -12 0
v -10 -12 0
v -10 -11 0
v -9 -11 0
v -11 -12 0
v -12 -12 0
v -12 -11 0
v -11 -11 0
v -12 -12 0
v -13 -12 0
v -13 -11 0
v -12 -11 0
v -22 -12 0
v -23 -12 0
v -23 -11 0
v -22 -11 0
v -29 -12 0
v -30 -12 0
v -30 -11 0
v -29 -11 0
v -8 -13 0
v -9 -13 0
v -9 -12 0
v -8 -12 0
v -9 -13 0
v -10 -13 0
v -10 -12 0
v -9 -12 0
v -11 -13 0
v -12 -13 0
v -12 -12 0
v -11 -12 0
v -12 -13 0
v -13 -13 0
v -13 -12 0
v -12 -12 0
v -13 -13 0
v -14 -13 0
v -14 -12 0
v -13 -12 0
v -15 -13 0
v -16 -13 0
v -16 -12 0
v -15 -12 0
v -17 -13 0
v -18 -13 0
v -18 -12 0
v -17 -12 0
v -20 -13 0
v -21 -13 0
v -21 -12 0
v -20 -12 0
v -22 -13 0
v -23 -13 0
v -23 -12 0
v -22 -12 0
v -23 -13 0
v -24 -13 0
v -24 -12 0
v -23 -12 0
v -24 -13 0
v -25 -13 0
v -25 -12 0
v -24 -12 0
v -26 -13 0
v -27 -13 0
v -27 -12 0
v -26 -12 0
v -27 -13 0
v -28 -13 0
v -28 -12 0
v -27 -12 0
v -29 -13 0
v -30 -13 0
v -30 -12 0
v -29 -12 0
v -8 -14 0
v -9 -14 0
v -9 -13 0
v -8 -13 0
v -12 -14 0
v -13 -14 0
v -13 -13 0
v -12 -13 0
v -13 -14 0
v -14 -14 0
v -14 -13 0
v -13 -13 0
v -15 -14 0
v -16 -14 0
v -16 -13 0
v -15 -13 0
v -18 -14 0
v -19 -14 0
v -19 -13 0
v -18 -13 0
v -19 -14 0
v -20 -14 0
v -20 -13 0
v -19 -13 0
v -22 -14 0
v -23 -14 0
v -23 -13 0
v -22 -13 0
v -23 -14 0
v -24 -14 0
v -24 -13 0
v -23 -13 0
v -27 -14 0
v -28 -14 0
v -28 -13 0
v -27 -13 0
v -29 -14 0
v -30 -14 0
v -30 -13 0
v -29 -13 0
v -8 -15 0
v -9 -15 0
v -9 -14 0
v -8 -14 0
v -11 -15 0
v -12 -15 0
v -12 -14 0
v -11 -14 0
v -13 -15 0
v -14 -15 0
v -14 -14 0
v -13 -14 0
v -15 -15 0
v -16 -15 0
v -16 -14 0
v -15 -14 0
v -17 -15 0
v -18 -15 0
v -18 -14 0
v -17 -14 0
v -18 -15 0
v -19 -15 0
v -19 -14 0
v -18 -14 0
v -19 -15 0
v -20 -15 0
v -20 -14 0
v -19 -14 0
v -20 -15 0
v -21 -15 0
v -21 -14 0
v -20 -14 0
v -22 -15 0
v -23 -15 0
v -23 -14 0
v -22 -14 0
v -23 -15 0
v -24 -15 0
v -24 -14 0
v -23 -14 0
v -27 -15 0
v -28 -15 0
v -28 -14 0
v -27 -14 0
v -29 -15 0
v -30 -15 0
v -30 -14 0
v -29 -14 0
v -8 -16 0
v -9 -16 0
v -9 -15 0
v -8 -15 0
v -15 -16 0
v -16 -16 0
v -16 -15 0
v -15 -15 0
v -17 -16 0
v -18 -16 0
v -18 -15 0
v -17 -15 0
v -20 -16 0
v -21 -16 0
v -21 -15 0
v -20 -15 0
v -22 -16 0
v -23 -16 0
v -23 -15 0
v -22 -15 0
v -23 -16 0
v -24 -16 0
v -24 -15 0
v -23 -15 0
v -24 -16 0
v -25 -16 0
v -25 -15 0
v -24 -15 0
v -25 -16 0
v -26 -16 0
v -26 -15 0
v -25 -15 0
v -26 -16 0
v -27 -16 0
v -27 -15 0
v -26 -15 0
v -27 -16 0
v -28 -16 0
v -28 -15 0
v -27 -15 0
v -29 -16 0
v -30 -16 0
v -30 -15 0
v -29 -15 0
v -8 -17 0
v -9 -17 0
v -9 -16 0
v -8 -16 0
v -13 -17 0
v -14 -17 0
v -14 -16 0
v -13 -16 0
v -14 -17 0
v -15 -17 0
v -15 -16 0
v -14 -16 0
v -15 -17 0
v -16 -17 0
v -16 -16 0
v -15 -16 0
v -29 -17 0
v -30 -17 0
v -30 -16 0
v -29 -16 0
v -8 -18 0
v -9 -18 0
v -9 -17 0
v -8 -17 0
v -9 -18 0
v -10 -18 0
v -10 -17 0
v -9 -17 0
v -10 -18 0
v -11 -18 0
v -11 -17 0
v -10 -17 0
v -11 -18 0
v -12 -18 0
v -12 -17 0
v -11 -17 0
v -12 -18 0
v -13 -18 0
v -13 -17 0
v -12 -17 0
v -13 -18 0
v -14 -18 0
v -14 -17 0
v -13 -17 0
v -14 -18 0
v -15 -18 0
v -15 -17 0
v -14 -17 0
v -15 -18 0
v -16 -18 0
v -16 -17 0
v -15 -17 0
v -16 -18 0
v -17 -18 0
v -17 -17 0
v -16 -17 0
v -17 -18 0
v -18 -18 0
v -18 -17 0
v -17 -17 0
v -18 -18 0
v -19 -18 0
v -19 -17 0
v -18 -17 0
v -19 -18 0
v -20 -18 0
v -20 -17 0
v -19 -17 0
v -20 -18 0
v -21 -18 0
v -21 -17 0
v -20 -17 0
v -21 -18 0
v -22 -18 0
v -22 -17 0
v -21 -17 0
v -22 -18 0
v -23 -18 0
v -23 -17 0
v -22 -17 0
v -23 -18 0
v -24 -18 0
v -24 -17 0
v -23 -17 0
v -24 -18 0
v -25 -18 0
v -25 -17 0
v -24 -17 0
v -25 -18 0
v -26 -18 0
v -26 -17 0
v -25 -17 0
v -26 -18 0
v -27 -18 0
v -27 -17 0
v -26 -17 0
v -27 -18 0
v -28 -18 0
v -28 -17 0
v -27 -17 0
v -28 -18 0
v -29 -18 0
v -29 -17 0
v -28 -17 0
v -29 -18 0
v -30 -18 0
v -30 -17 0
v -29 -17 0

# Texture cooridinates (Count = 46)
vt 0.3333333 0.3529412
vt 0.5 0.3529412
vt 0.5 0.4117647
vt 0.3333333 0.4117647
vt 0.6666667 0.3529412
vt 0.6666667 0.4117647
vt 0.8333333 0.3529412
vt 0.8333333 0.4117647
vt 0.3333333 0.2941176
vt 0.5 0.2941176
vt 0.3333333 0.7058823
vt 0.5 0.7058823
vt 0.5 0.6470588
vt 0.3333333 0.6470588
vt 0.6666667 0.2941176
vt 0.8333333 0.2941176
vt 0.5 0.1764706
vt 0.6666667 0.1764706
vt 0.6666667 0.1176471
vt 0.5 0.1176471
vt 0.3333333 0.1764706
vt 0.3333333 0.1176471
vt 0.5 0.2352941
vt 0.6666667 0.2352941
vt 0.3333333 0.2352941
vt 0.1666667 0.4705882
vt 0.3333333 0.4705882
vt 0.3333333 0.5294118
vt 0.1666667 0.5294118
vt 0.8333333 0.2352941
vt 0 0.9411765
vt 0.1666667 0.9411765
vt 0.1666667 1
vt 0 1
vt 0.3333333 0.9411765
vt 0.3333333 1
vt 0.5 0.9411765
vt 0.5 1
vt 0 0.8823529
vt 0.1666667 0.8823529
vt 0.3333333 0.8823529
vt 0.5 0.8823529
vt 0 0.8235294
vt 0.1666667 0.8235294
vt 0.3333333 0.8235294
vt 0.5 0.8235294

# Normal
vn 0 0 -1

# Mesh description
g Dungeon-2_mesh_0002

# Faces
f 1/1/1 2/2/1 3/3/1 4/4/1
f 5/2/1 6/5/1 7/6/1 8/3/1
f 9/2/1 10/5/1 11/6/1 12/3/1
f 13/2/1 14/5/1 15/6/1 16/3/1
f 17/2/1 18/5/1 19/6/1 20/3/1
f 21/2/1 22/5/1 23/6/1 24/3/1
f 25/2/1 26/5/1 27/6/1 28/3/1
f 29/2/1 30/5/1 31/6/1 32/3/1
f 33/2/1 34/5/1 35/6/1 36/3/1
f 37/2/1 38/5/1 39/6/1 40/3/1
f 41/2/1 42/5/1 43/6/1 44/3/1
f 45/2/1 46/5/1 47/6/1 48/3/1
f 49/2/1 50/5/1 51/6/1 52/3/1
f 53/2/1 54/5/1 55/6/1 56/3/1
f 57/2/1 58/5/1 59/6/1 60/3/1
f 61/2/1 62/5/1 63/6/1 64/3/1
f 65/2/1 66/5/1 67/6/1 68/3/1
f 69/2/1 70/5/1 71/6/1 72/3/1
f 73/2/1 74/5/1 75/6/1 76/3/1
f 77/2/1 78/5/1 79/6/1 80/3/1
f 81/5/1 82/7/1 83/8/1 84/6/1
f 85/9/1 86/10/1 87/2/1 88/1/1
f 89/11/1 90/12/1 91/13/1 92/14/1
f 93/11/1 94/12/1 95/13/1 96/14/1
f 97/11/1 98/12/1 99/13/1 100/14/1
f 101/15/1 102/16/1 103/7/1 104/5/1
f 105/9/1 106/10/1 107/2/1 108/1/1
f 109/1/1 110/2/1 111/3/1 112/4/1
f 113/2/1 114/5/1 115/6/1 116/3/1
f 117/2/1 118/5/1 119/6/1 120/3/1
f 121/5/1 122/7/1 123/8/1 124/6/1
f 125/11/1 126/12/1 127/13/1 128/14/1
f 129/11/1 130/12/1 131/13/1 132/14/1
f 133/11/1 134/12/1 135/13/1 136/14/1
f 137/11/1 138/12/1 139/13/1 140/14/1
f 141/15/1 142/16/1 143/7/1 144/5/1
f 145/9/1 146/10/1 147/2/1 148/1/1
f 149/9/1 150/10/1 151/2/1 152/1/1
f 153/15/1 154/16/1 155/7/1 156/5/1
f 157/11/1 158/12/1 159/13/1 160/14/1
f 161/11/1 162/12/1 163/13/1 164/14/1
f 165/17/1 166/18/1 167/19/1 168/20/1
f 169/21/1 170/17/1 171/20/1 172/22/1
f 173/11/1 174/12/1 175/13/1 176/14/1
f 177/11/1 178/12/1 179/13/1 180/14/1
f 181/11/1 182/12/1 183/13/1 184/14/1
f 185/11/1 186/12/1 187/13/1 188/14/1
f 189/15/1 190/16/1 191/7/1 192/5/1
f 193/9/1 194/10/1 195/2/1 196/1/1
f 197/9/1 198/10/1 199/2/1 200/1/1
f 201/15/1 202/16/1 203/7/1 204/5/1
f 205/11/1 206/12/1 207/13/1 208/14/1
f 209/23/1 210/24/1 211/18/1 212/17/1
f 213/25/1 214/23/1 215/17/1 216/21/1
f 217/11/1 218/12/1 219/13/1 220/14/1
f 221/15/1 222/16/1 223/7/1 224/5/1
f 225/9/1 226/10/1 227/2/1 228/1/1
f 229/25/1 230/23/1 231/10/1 232/9/1
f 233/23/1 234/24/1 235/15/1 236/10/1
f 237/26/1 238/27/1 239/28/1 240/29/1
f 241/23/1 242/24/1 243/15/1 244/10/1
f 245/24/1 246/30/1 247/16/1 248/15/1
f 249/11/1 250/12/1 251/13/1 252/14/1
f 253/11/1 254/12/1 255/13/1 256/14/1
f 257/11/1 258/12/1 259/13/1 260/14/1
f 261/11/1 262/12/1 263/13/1 264/14/1
f 265/11/1 266/12/1 267/13/1 268/14/1
f 269/11/1 270/12/1 271/13/1 272/14/1
f 273/11/1 274/12/1 275/13/1 276/14/1
f 277/15/1 278/16/1 279/7/1 280/5/1
f 281/9/1 282/10/1 283/2/1 284/1/1
f 285/11/1 286/12/1 287/13/1 288/14/1
f 289/11/1 290/12/1 291/13/1 292/14/1
f 293/15/1 294/16/1 295/7/1 296/5/1
f 297/9/1 298/10/1 299/2/1 300/1/1
f 301/11/1 302/12/1 303/13/1 304/14/1
f 305/11/1 306/12/1 307/13/1 308/14/1
f 309/11/1 310/12/1 311/13/1 312/14/1
f 313/11/1 314/12/1 315/13/1 316/14/1
f 317/11/1 318/12/1 319/13/1 320/14/1
f 321/31/1 322/32/1 323/33/1 324/34/1
f 325/32/1 326/35/1 327/36/1 328/33/1
f 329/32/1 330/35/1 331/36/1 332/33/1
f 333/32/1 334/35/1 335/36/1 336/33/1
f 337/32/1 338/35/1 339/36/1 340/33/1
f 341/32/1 342/35/1 343/36/1 344/33/1
f 345/32/1 346/35/1 347/36/1 348/33/1
f 349/35/1 350/37/1 351/38/1 352/36/1
f 353/11/1 354/12/1 355/13/1 356/14/1
f 357/11/1 358/12/1 359/13/1 360/14/1
f 361/11/1 362/12/1 363/13/1 364/14/1
f 365/11/1 366/12/1 367/13/1 368/14/1
f 369/11/1 370/12/1 371/13/1 372/14/1
f 373/15/1 374/16/1 375/7/1 376/5/1
f 377/9/1 378/10/1 379/2/1 380/1/1
f 381/39/1 382/40/1 383/32/1 384/31/1
f 385/41/1 386/42/1 387/37/1 388/35/1
f 389/15/1 390/16/1 391/7/1 392/5/1
f 393/9/1 394/10/1 395/2/1 396/1/1
f 397/26/1 398/27/1 399/28/1 400/29/1
f 401/26/1 402/27/1 403/28/1 404/29/1
f 405/39/1 406/40/1 407/32/1 408/31/1
f 409/41/1 410/42/1 411/37/1 412/35/1
f 413/15/1 414/16/1 415/7/1 416/5/1
f 417/9/1 418/10/1 419/2/1 420/1/1
f 421/14/1 422/13/1 423/12/1 424/11/1
f 425/14/1 426/13/1 427/12/1 428/11/1
f 429/14/1 430/13/1 431/12/1 432/11/1
f 433/14/1 434/13/1 435/12/1 436/11/1
f 437/14/1 438/13/1 439/12/1 440/11/1
f 441/43/1 442/44/1 443/40/1 444/39/1
f 445/44/1 446/45/1 447/41/1 448/40/1
f 449/44/1 450/45/1 451/41/1 452/40/1
f 453/44/1 454/45/1 455/41/1 456/40/1
f 457/44/1 458/45/1 459/41/1 460/40/1
f 461/44/1 462/45/1 463/41/1 464/40/1
f 465/44/1 466/45/1 467/41/1 468/40/1
f 469/45/1 470/46/1 471/42/1 472/41/1
f 473/14/1 474/13/1 475/12/1 476/11/1
f 477/14/1 478/13/1 479/12/1 480/11/1
f 481/14/1 482/13/1 483/12/1 484/11/1
f 485/14/1 486/13/1 487/12/1 488/11/1
f 489/14/1 490/13/1 491/12/1 492/11/1
f 493/15/1 494/16/1 495/7/1 496/5/1
f 497/9/1 498/10/1 499/2/1 500/1/1
f 501/14/1 502/13/1 503/12/1 504/11/1
f 505/26/1 506/27/1 507/28/1 508/29/1
f 509/26/1 510/27/1 511/28/1 512/29/1
f 513/14/1 514/13/1 515/12/1 516/11/1
f 517/15/1 518/16/1 519/7/1 520/5/1
f 521/9/1 522/10/1 523/2/1 524/1/1
f 525/14/1 526/13/1 527/12/1 528/11/1
f 529/14/1 530/13/1 531/12/1 532/11/1
f 533/26/1 534/27/1 535/28/1 536/29/1
f 537/14/1 538/13/1 539/12/1 540/11/1
f 541/14/1 542/13/1 543/12/1 544/11/1
f 545/14/1 546/13/1 547/12/1 548/11/1
f 549/14/1 550/13/1 551/12/1 552/11/1
f 553/14/1 554/13/1 555/12/1 556/11/1
f 557/1/1 558/2/1 559/3/1 560/4/1
f 561/2/1 562/5/1 563/6/1 564/3/1
f 565/2/1 566/5/1 567/6/1 568/3/1
f 569/5/1 570/7/1 571/8/1 572/6/1
f 573/15/1 574/16/1 575/7/1 576/5/1
f 577/9/1 578/10/1 579/2/1 580/1/1
f 581/26/1 582/27/1 583/28/1 584/29/1
f 585/26/1 586/27/1 587/28/1 588/29/1
f 589/14/1 590/13/1 591/12/1 592/11/1
f 593/17/1 594/18/1 595/24/1 596/23/1
f 597/21/1 598/17/1 599/23/1 600/25/1
f 601/14/1 602/13/1 603/12/1 604/11/1
f 605/9/1 606/10/1 607/2/1 608/1/1
f 609/15/1 610/16/1 611/7/1 612/5/1
f 613/15/1 614/16/1 615/7/1 616/5/1
f 617/9/1 618/10/1 619/2/1 620/1/1
f 621/14/1 622/13/1 623/12/1 624/11/1
f 625/14/1 626/13/1 627/12/1 628/11/1
f 629/14/1 630/13/1 631/12/1 632/11/1
f 633/14/1 634/13/1 635/12/1 636/11/1
f 637/20/1 638/19/1 639/18/1 640/17/1
f 641/22/1 642/20/1 643/17/1 644/21/1
f 645/14/1 646/13/1 647/12/1 648/11/1
f 649/14/1 650/13/1 651/12/1 652/11/1
f 653/9/1 654/10/1 655/2/1 656/1/1
f 657/15/1 658/16/1 659/7/1 660/5/1
f 661/15/1 662/16/1 663/7/1 664/5/1
f 665/9/1 666/10/1 667/2/1 668/1/1
f 669/14/1 670/13/1 671/12/1 672/11/1
f 673/14/1 674/13/1 675/12/1 676/11/1
f 677/14/1 678/13/1 679/12/1 680/11/1
f 681/14/1 682/13/1 683/12/1 684/11/1
f 685/25/1 686/23/1 687/10/1 688/9/1
f 689/23/1 690/24/1 691/15/1 692/10/1
f 693/26/1 694/27/1 695/28/1 696/29/1
f 697/23/1 698/24/1 699/15/1 700/10/1
f 701/24/1 702/30/1 703/16/1 704/15/1
f 705/15/1 706/16/1 707/7/1 708/5/1
f 709/9/1 710/10/1 711/2/1 712/1/1
f 713/14/1 714/13/1 715/12/1 716/11/1
f 717/14/1 718/13/1 719/12/1 720/11/1
f 721/14/1 722/13/1 723/12/1 724/11/1
f 725/15/1 726/16/1 727/7/1 728/5/1
f 729/25/1 730/23/1 731/10/1 732/9/1
f 733/23/1 734/24/1 735/15/1 736/10/1
f 737/26/1 738/27/1 739/28/1 740/29/1
f 741/23/1 742/24/1 743/15/1 744/10/1
f 745/23/1 746/24/1 747/15/1 748/10/1
f 749/23/1 750/24/1 751/15/1 752/10/1
f 753/23/1 754/24/1 755/15/1 756/10/1
f 757/23/1 758/24/1 759/15/1 760/10/1
f 761/23/1 762/24/1 763/15/1 764/10/1
f 765/23/1 766/24/1 767/15/1 768/10/1
f 769/23/1 770/24/1 771/15/1 772/10/1
f 773/23/1 774/24/1 775/15/1 776/10/1
f 777/23/1 778/24/1 779/15/1 780/10/1
f 781/23/1 782/24/1 783/15/1 784/10/1
f 785/23/1 786/24/1 787/15/1 788/10/1
f 789/23/1 790/24/1 791/15/1 792/10/1
f 793/23/1 794/24/1 795/15/1 796/10/1
f 797/23/1 798/24/1 799/15/1 800/10/1
f 801/23/1 802/24/1 803/15/1 804/10/1
f 805/23/1 806/24/1 807/15/1 808/10/1
f 809/23/1 810/24/1 811/15/1 812/10/1
f 813/24/1 814/30/1 815/16/1 816/15/1

