# Tiled2Unity generated file. Do not modify by hand.
# Wavefront file for 'Dungeon-2_mesh_0003.obj'

# Vertices (Count = 152)
v -18 -1 0
v -19 -1 0
v -19 0 0
v -18 0 0
v -19 -1 0
v -20 -1 0
v -20 0 0
v -19 0 0
v -26 -1 0
v -27 -1 0
v -27 0 0
v -26 0 0
v -27 -1 0
v -28 -1 0
v -28 0 0
v -27 0 0
v -28 -1 0
v -29 -1 0
v -29 0 0
v -28 0 0
v -18 -2 0
v -19 -2 0
v -19 -1 0
v -18 -1 0
v -19 -2 0
v -20 -2 0
v -20 -1 0
v -19 -1 0
v -11 -3 0
v -12 -3 0
v -12 -2 0
v -11 -2 0
v -12 -3 0
v -13 -3 0
v -13 -2 0
v -12 -2 0
v -13 -3 0
v -14 -3 0
v -14 -2 0
v -13 -2 0
v -11 -4 0
v -12 -4 0
v -12 -3 0
v -11 -3 0
v -13 -4 0
v -14 -4 0
v -14 -3 0
v -13 -3 0
v -11 -6 0
v -12 -6 0
v -12 -5 0
v -11 -5 0
v -12 -6 0
v -13 -6 0
v -13 -5 0
v -12 -5 0
v -13 -6 0
v -14 -6 0
v -14 -5 0
v -13 -5 0
v -8 -9 0
v -9 -9 0
v -9 -8 0
v -8 -8 0
v -9 -9 0
v -10 -9 0
v -10 -8 0
v -9 -8 0
v -28 -9 0
v -29 -9 0
v -29 -8 0
v -28 -8 0
v -29 -9 0
v -30 -9 0
v -30 -8 0
v -29 -8 0
v -8 -10 0
v -9 -10 0
v -9 -9 0
v -8 -9 0
v -9 -10 0
v -10 -10 0
v -10 -9 0
v -9 -9 0
v -28 -10 0
v -29 -10 0
v -29 -9 0
v -28 -9 0
v -29 -10 0
v -30 -10 0
v -30 -9 0
v -29 -9 0
v -24 -13 0
v -25 -13 0
v -25 -12 0
v -24 -12 0
v -25 -13 0
v -26 -13 0
v -26 -12 0
v -25 -12 0
v -26 -13 0
v -27 -13 0
v -27 -12 0
v -26 -12 0
v -24 -15 0
v -25 -15 0
v -25 -14 0
v -24 -14 0
v -26 -15 0
v -27 -15 0
v -27 -14 0
v -26 -14 0
v -24 -16 0
v -25 -16 0
v -25 -15 0
v -24 -15 0
v -25 -16 0
v -26 -16 0
v -26 -15 0
v -25 -15 0
v -26 -16 0
v -27 -16 0
v -27 -15 0
v -26 -15 0
v -18 -17 0
v -19 -17 0
v -19 -16 0
v -18 -16 0
v -19 -17 0
v -20 -17 0
v -20 -16 0
v -19 -16 0
v -9 -18 0
v -10 -18 0
v -10 -17 0
v -9 -17 0
v -10 -18 0
v -11 -18 0
v -11 -17 0
v -10 -17 0
v -11 -18 0
v -12 -18 0
v -12 -17 0
v -11 -17 0
v -18 -18 0
v -19 -18 0
v -19 -17 0
v -18 -17 0
v -19 -18 0
v -20 -18 0
v -20 -17 0
v -19 -17 0

# Texture cooridinates (Count = 32)
vt 0.8333333 0.8823529
vt 1 0.8823529
vt 1 0.9411765
vt 0.8333333 0.9411765
vt 0 0.7647059
vt 0.1666667 0.7647059
vt 0.1666667 0.8235294
vt 0 0.8235294
vt 0.3333333 0.7647059
vt 0.3333333 0.8235294
vt 0.5 0.7647059
vt 0.5 0.8235294
vt 0.8333333 0.8235294
vt 1 0.8235294
vt 0 0.7058823
vt 0.1666667 0.7058823
vt 0.3333333 0.7058823
vt 0.5 0.7058823
vt 0.8333333 0.1764706
vt 1 0.1764706
vt 1 0.2352941
vt 0.8333333 0.2352941
vt 0 0.6470588
vt 0.1666667 0.6470588
vt 0.3333333 0.6470588
vt 0 0.5882353
vt 0.1666667 0.5882353
vt 0.3333333 0.5882353
vt 0.8333333 0.7647059
vt 1 0.7647059
vt 0.8333333 0.7058823
vt 1 0.7058823

# Normal
vn 0 0 -1

# Mesh description
g Dungeon-2_mesh_0003

# Faces
f 1/1/1 2/2/1 3/3/1 4/4/1
f 5/1/1 6/2/1 7/3/1 8/4/1
f 9/5/1 10/6/1 11/7/1 12/8/1
f 13/6/1 14/9/1 15/10/1 16/7/1
f 17/9/1 18/11/1 19/12/1 20/10/1
f 21/13/1 22/14/1 23/2/1 24/1/1
f 25/13/1 26/14/1 27/2/1 28/1/1
f 29/15/1 30/16/1 31/6/1 32/5/1
f 33/16/1 34/17/1 35/9/1 36/6/1
f 37/17/1 38/18/1 39/11/1 40/9/1
f 41/19/1 42/20/1 43/21/1 44/22/1
f 45/19/1 46/20/1 47/21/1 48/22/1
f 49/5/1 50/6/1 51/7/1 52/8/1
f 53/6/1 54/9/1 55/10/1 56/7/1
f 57/9/1 58/11/1 59/12/1 60/10/1
f 61/23/1 62/24/1 63/16/1 64/15/1
f 65/24/1 66/25/1 67/17/1 68/16/1
f 69/26/1 70/27/1 71/24/1 72/23/1
f 73/27/1 74/28/1 75/25/1 76/24/1
f 77/23/1 78/24/1 79/16/1 80/15/1
f 81/24/1 82/25/1 83/17/1 84/16/1
f 85/26/1 86/27/1 87/24/1 88/23/1
f 89/27/1 90/28/1 91/25/1 92/24/1
f 93/15/1 94/16/1 95/6/1 96/5/1
f 97/16/1 98/17/1 99/9/1 100/6/1
f 101/17/1 102/18/1 103/11/1 104/9/1
f 105/22/1 106/21/1 107/20/1 108/19/1
f 109/22/1 110/21/1 111/20/1 112/19/1
f 113/5/1 114/6/1 115/7/1 116/8/1
f 117/6/1 118/9/1 119/10/1 120/7/1
f 121/9/1 122/11/1 123/12/1 124/10/1
f 125/29/1 126/30/1 127/14/1 128/13/1
f 129/29/1 130/30/1 131/14/1 132/13/1
f 133/15/1 134/16/1 135/6/1 136/5/1
f 137/16/1 138/17/1 139/9/1 140/6/1
f 141/17/1 142/18/1 143/11/1 144/9/1
f 145/31/1 146/32/1 147/30/1 148/29/1
f 149/31/1 150/32/1 151/30/1 152/29/1

